<svg xmlns="http://www.w3.org/2000/svg" viewBox="0 0 40.09158 35.08013">
  <title>Asset 5</title>
  <g id="59b59a71-b71d-4f6b-bed0-47f663caf412" data-name="Layer 2">
    <g id="d0c03aeb-373f-4479-bba9-dae621853e11" data-name="Newsworthy_bar">
      <g id="44372be4-8ea6-4f75-9b44-dce292981eab" data-name="Experience necktie">
        <path d="M37.28517,6.428,33.22924,5.36559l-5.693,8.63305a2.65864,2.65864,0,0,1-2.10481,1.19607L27.6966,29.6544a2.68313,2.68313,0,0,1-.74838,2.30527l-.61468.61474h13.758V10.063A3.74727,3.74727,0,0,0,37.28517,6.428Z" fill="#fff"/>
        <path d="M14.66688,15.19471A2.65864,2.65864,0,0,1,12.562,13.99864L6.869,5.36559,2.81309,6.428A3.75334,3.75334,0,0,0,0,10.063V32.57441H13.75815l-.61468-.61474A2.68319,2.68319,0,0,1,12.395,29.6544Z" fill="#fff"/>
        <polygon points="22.719 13.531 20.046 9.936 17.373 13.538 17.54 14.112 15.034 30.069 20.046 35.08 25.057 30.069 22.552 14.112 22.719 13.531" fill="#fff"/>
        <polygon points="29.714 0 20.049 5.459 25.306 12.529 31.325 3.401 29.714 0" fill="#fff"/>
        <polygon points="8.773 3.401 14.791 12.529 20.049 5.459 10.384 0 8.773 3.401" fill="#fff"/>
      </g>
    </g>
  </g>
</svg>
