<svg xmlns="http://www.w3.org/2000/svg" viewBox="0 0 32.85112 27.23544">
  <title>Asset 6</title>
  <g id="668801ff-738b-49a4-8d43-3df91c87a986" data-name="Layer 2">
    <g id="957c2e60-86ec-4f7c-b443-da26e5a5428e" data-name="IncomingEvents_bar">
      <g id="e0399b0a-19a0-4cbd-8db8-f73cc845201a" data-name="Icons">
        <g>
          <path d="M.88164,7.026H0V23.94867a3.29033,3.29033,0,0,0,3.28677,3.28677H29.57724a3.28406,3.28406,0,0,0,3.27386-3.28677V7.026H.88164Zm9.5443,7.21664H15.0407V9.62178a1.38517,1.38517,0,1,1,2.77034,0v4.6209h4.61414a1.38517,1.38517,0,0,1,0,2.77034H17.811v4.6209a1.38517,1.38517,0,1,1-2.77034,0V17.013H10.42595a1.38517,1.38517,0,0,1,0-2.77034Z" fill="#fff"/>
          <path d="M29.57725,0H3.28678A3.29033,3.29033,0,0,0,0,3.28677V6.1444H32.85112V3.28677A3.28408,3.28408,0,0,0,29.57725,0Zm-18.523,3.72759H4.48074a.44082.44082,0,0,1,0-.88164h6.57354a.44082.44082,0,0,1,0,.88164Zm3.42756,0H12.8114a.44082.44082,0,0,1,0-.88164h1.67044a.44082.44082,0,1,1,0,.88164Z" fill="#fff"/>
        </g>
      </g>
    </g>
  </g>
</svg>
