<svg xmlns="http://www.w3.org/2000/svg" viewBox="0 0 35.91531 48.37054">
  <title>Asset 7</title>
  <g id="c219ccc6-e1ee-4c75-8041-a2342fdac92a" data-name="Layer 2">
    <g id="b97c3f9b-0f97-4617-b694-ae55e4ed9e28" data-name="IncomingEvents_bar">
      <g>
        <g id="334612bc-24cb-47bd-91c4-c951dcd926d3" data-name="90d5cde1-99fe-4b01-8adc-c3db18ccad34">
          <path d="M13.6377,46.37242a23.75917,23.75917,0,0,0-2.54257-9.74415,34.57565,34.57565,0,0,0-6.27336-8.45191,3.58485,3.58485,0,0,1-1.25791-1.99379,1.75135,1.75135,0,0,1,.96887-1.81139,2.3534,2.3534,0,0,1,2.129.27824,5.48037,5.48037,0,0,1,1.63815,1.60735,7.48083,7.48083,0,0,1,1.31961,3.41982c.01892.15591.03138.29686.20349.346a2.56891,2.56891,0,0,0,.66409.00406c.24765-.00131.49517.00114.74278.00481.1291.00191.284.02316.35677-.107a1.16611,1.16611,0,0,0,.02629-.52315q-.00265-.39645-.00192-.79292.001-1.46219.00165-2.92438-.00012-5.89879-.00026-11.79757v-.8045c-.18942.01123-.37541.281-.51041.41q-.24624.23539-.4924.47087a12.37955,12.37955,0,0,1-.9877.937,4.24737,4.24737,0,0,1,.05723,1.18483q.00042.59583.00071,1.19166.0006,1.24131.0006,2.48262t-.00059,2.48262q-.00028.59583-.00071,1.19166a5.04322,5.04322,0,0,1-.0484,1.18927c-.2891-.24-.50773-.56219-.78066-.822a6.60172,6.60172,0,0,0-.87292-.69911,5.18179,5.18179,0,0,0-1.95484-.84006A3.88332,3.88332,0,0,0,2.58146,23.3199a3.80234,3.80234,0,0,0-1.0432,3.11217,4.3381,4.3381,0,0,0,.70749,1.86125,12.0641,12.0641,0,0,0,1.45966,1.63586A31.80325,31.80325,0,0,1,9.26365,37.5078a22.06032,22.06032,0,0,1,2.37908,9.15841c.01461.40455.01419.8091.01422,1.21385,0,.066-.04357.42161.0039.46526.01219.01121.0728-.00272.08891,0a6.74251,6.74251,0,0,0,1.07069,0h.56994c.0536,0,.24686.03355.29318,0,.07635-.0553.02432-.5361.02251-.63618-.005-.27806-.01926-.55593-.03622-.83349C13.65963,46.708,13.64438,46.54028,13.6377,46.37242Z" fill="#fff"/>
          <path d="M35.91263,23.47267A4.27972,4.27972,0,0,0,33.039,19.26555a9.41985,9.41985,0,0,0-3.83184-.55042.391.391,0,0,1-.28344-.092,4.9072,4.9072,0,0,0-2.353-1.52486,9.14022,9.14022,0,0,0-3.24579-.4033.63417.63417,0,0,1-.6487-.28589,1.81332,1.81332,0,0,0-.30025-.2937c-.06031.23014-.13094.45816-.17835.69093-.06207.3048-.07634.31072-.36216.21536a12.1588,12.1588,0,0,1-4.17277-2.38522c-.69335-.60426-1.30888-1.29783-1.95946-1.95117-.0025.20356-.00715.40711-.00717.61066q-.00033,5.39362-.00034,10.78725v.31837h2.011V16.68026a6.05483,6.05483,0,0,1,.78848.053,11.55421,11.55421,0,0,1,1.72823.40566,2.23061,2.23061,0,0,1,1.53838,2.28826q-.0005,2.32666-.00013,4.65332c.00005.30125.00038.30154.30878.30166.562.00022,1.124.00006,1.69525.00006V18.73456a.16082.16082,0,0,1,.06523-.024,6.47889,6.47889,0,0,1,2.56674.48661,2.23206,2.23206,0,0,1,1.42454,2.20052q.00083,2.36191.001,4.72383c0,.08412,0,.16823,0,.28175h1.21579c.19584,0,.39253-.01125.5873.00323.18274.0136.22541-.061.22219-.23057-.00938-.49336-.00316-.987-.00316-1.48054,0-1.07324.00185-2.14649-.00154-3.21972-.00076-.24107-.01992-.48208-.03366-.79164.55807.06789,1.1041.1011,1.63471.20973a5.1125,5.1125,0,0,1,1.17023.40342,2.065,2.065,0,0,1,1.25843,1.94347,59.30944,59.30944,0,0,1-.3133,9.00817,37.10136,37.10136,0,0,1-2.11467,8.23359A31.67487,31.67487,0,0,0,29.902,46.77158c-.089.68952-.10023.92233-.14868,1.57374H31.8152c.01653-.16508.03423-.31282.04571-.461a23.0721,23.0721,0,0,1,1.32453-6.25117,43.40249,43.40249,0,0,0,1.675-5.323,38.01288,38.01288,0,0,0,1.054-8.81881C35.90426,26.15183,35.91294,24.81222,35.91263,23.47267Z" fill="#fff"/>
          <path d="M11.65493,4.12884l-.07757.653c-.115-.06111-.2022-.10478-.28688-.15283-.47575-.27-.952-.53914-1.42506-.81378A1.2998,1.2998,0,0,1,9.67392,3.648a4.01891,4.01891,0,0,1,8.00045-.0361,2.66609,2.66609,0,0,1-.28955.22152c-.56021.32162-1.12429.6365-1.687.95371-.01647-.35152-.00513-.707-.05471-1.05379a1.9812,1.9812,0,0,0-3.86939-.27393A6.38991,6.38991,0,0,0,11.65493,4.12884Z" fill="#fff"/>
          <path d="M9.62523,10.30115c.48449-.26873.968-.53924,1.454-.80522a2.8776,2.8776,0,0,1,.54221-.23479A6.90546,6.90546,0,0,1,9.71134,11.505l-.07442-1.17064A.04385.04385,0,0,1,9.62523,10.30115Z" fill="#fff"/>
          <path d="M17.657,5.96917V8.06781L15.6981,7.014Z" fill="#fff"/>
          <path d="M9.6971,7.97844V6.01556l1.8434.986Z" fill="#fff"/>
          <path d="M15.86905,9.22218c.56133.305,1.12353.60835,1.68246.91764a.21448.21448,0,0,1,.10733.14047c.00932.3394.00493.67919.00493,1.08a7.60421,7.60421,0,0,1-1.843-2.08456Z" fill="#fff"/>
        </g>
        <path d="M26.12807,3.68156a5.34137,5.34137,0,0,0-3.739-1.49542,7.28092,7.28092,0,0,0-2.23679.35184,19.31419,19.31419,0,0,0-2.19834.97315c-.31711.14653-.7363.388-1.04558.56385-.379.21554-.66467.3863-1.04468.60013-.38658.21753-.73065.42341-1.11885.638q-.28145.15559-.56232.31222c-.16.08934-.37014.26716-.56129.2668-.16922-.00033-.3538-.15595-.49752-.23749q-.28506-.16173-.57147-.32105c-.31928-.17708-.64027-.37054-.952-.54154-.29494-.16178-.66161-.3624-.98127-.54437q-.27265-.15521-.54456-.3117c-.1828-.10537-.33763-.23212-.53063-.33442A13.74085,13.74085,0,0,0,7.20681,2.58816,6.28409,6.28409,0,0,0,4.851,2.30172,5.78167,5.78167,0,0,0,1.09564,4.06966,4.49684,4.49684,0,0,0,.01789,7.48772a4.22945,4.22945,0,0,0,1.68167,3.02422,5.86224,5.86224,0,0,0,4.23253,1.19823,13.08643,13.08643,0,0,0,4.59058-1.90751,6.14392,6.14392,0,0,1,1.09877-.54153,6.90869,6.90869,0,0,1-1.374,1.79079q-.13559.12688-.27779.24644-.06332.05312-.12787.10478c-.05623.045-.37117.26941-.46259.33543-.15816.11421-.31842.22558-.48207.3318-.3047.19777-.62322.37308-.94551.54035a16.32618,16.32618,0,0,1-2.13145.92012q-.27976.09782-.56292.18549c-.10714.03315-.27856.05271-.3493.15419-.06641.09526-.02448.22077-.00569.32461.03624.20023.07337.40023.10792.60076q.20019,1.162.40231,2.32355A6.57974,6.57974,0,0,0,6.709,16.61579a10.41636,10.41636,0,0,0,1.3053-.64357c.39521-.23575.77281-.49927,1.15259-.7587.207-.14143.4002-.28974.59884-.44317a15.13628,15.13628,0,0,0,1.688-1.61465c.08156-.08768.4436-.53848.554-.69163.58781-.81575,1.19358-1.63005,1.73522-2.4772l1.38554,1.9072a7.90164,7.90164,0,0,0,.70448.92238c.25882.26336.51261.53159.7697.79663a13.59507,13.59507,0,0,0,3.2867,2.56827,12.158,12.158,0,0,0,1.86542.81324c.18708.0635.34343.15792.41646-.06809a6.68823,6.68823,0,0,0,.19764-.97873c.06194-.36832.112-.7621.17447-1.1303q.0403-.23752.08353-.47453c.02291-.12459.1175-.35221.03758-.47211-.06194-.09292-.23335-.11351-.32847-.144q-.21425-.06867-.42684-.14238c-.36468-.12666-.72526-.26556-1.08182-.41349a14.213,14.213,0,0,1-2.12008-1.07555,3.65607,3.65607,0,0,1-.911-.65092c-.109-.13873-.06951-.3689-.07031-.53756-.001-.2123.0026-.42461.0026-.63691A13.27617,13.27617,0,0,0,21.407,11.85573a5.57607,5.57607,0,0,0,3.8361-.71763,4.78437,4.78437,0,0,0,2.29159-4.66826A4.72051,4.72051,0,0,0,26.12807,3.68156ZM9.63247,6.19723c-.0131.26563-.00361.53237-.00361.79864-.0003.28193.00651.56415-.005.84562a.281.281,0,0,1-.09991.20939,12.39958,12.39958,0,0,1-3.43989,1.412,4.08189,4.08189,0,0,1-2.28706-.19A2.2599,2.2599,0,0,1,2.36783,6.69912,2.337,2.337,0,0,1,4.48819,4.55923a5.54053,5.54053,0,0,1,3.26888.50912c.57131.255,1.12528.5486,1.69028.81806A.28555.28555,0,0,1,9.63247,6.19723ZM25.11585,7.88677A2.27818,2.27818,0,0,1,23.0432,9.67763a5.86494,5.86494,0,0,1-3.26137-.56229c-.64183-.28772-1.26156-.62448-1.89462-.93221a.25691.25691,0,0,1-.16264-.27419c.00808-.29716.00252-.59469.00252-.89207.0007-.30521-.006-.61067.00561-.91544a.278.278,0,0,1,.1055-.20647,12.73936,12.73936,0,0,1,3.46191-1.416,4.77129,4.77129,0,0,1,2.07268.02656,2.232,2.232,0,0,1,1.80674,2.07641A4.68689,4.68689,0,0,1,25.11585,7.88677Z" fill="#d8d8d8"/>
      </g>
    </g>
  </g>
</svg>
