<svg xmlns="http://www.w3.org/2000/svg" viewBox="0 0 42.83902 42.67689">
  <title>Asset 8</title>
  <g id="e6bafb61-f402-44b1-9116-76c7ced06113" data-name="Layer 2">
    <g id="f72f03c3-89d2-4f5d-81bb-1f812f1ac64f" data-name="ProjectNews_bar">
      <g>
        <path d="M24.0887,15.85221H13.99934a.535.535,0,0,1,0-1.06784h9.48711a13.12409,13.12409,0,0,1-.59888-1.3348H13.99934a.535.535,0,0,1,0-1.06784H22.5794A10.337,10.337,0,0,1,22.23947,9.709a10.66335,10.66335,0,0,1,1.0722-4.71316H4.6111a1.44666,1.44666,0,0,0-1.40759,1.5214v28.734h20.6339a2.079,2.079,0,0,1,1.384.49183,1.65634,1.65634,0,0,1,.21971.20645l.03933.01984A2.11063,2.11063,0,0,1,25.984,37.313v2.21478c0,1.29706.80088,3.14914,1.86871,3.14914v-.02536a3.08738,3.08738,0,0,1-3.02554-3.12378V37.313a.94166.94166,0,0,0-.24685-.58028s-.08676-.0727-.11488-.09415a.95293.95293,0,0,0-.62807-.23047H.90188A.89629.89629,0,0,0,0,37.313v2.152a3.1651,3.1651,0,0,0,3.17939,3.1721H27.82862a3.09194,3.09194,0,0,0,1.976-.65717,3.1434,3.1434,0,0,0,1.25159-2.45273V20.41632A10.56,10.56,0,0,1,24.0887,15.85221ZM8.32334,11.87674a2.44065,2.44065,0,0,1,1.463.48684L7.98662,14.163l-.32444-.38389a.55063.55063,0,0,0-.84083.71118l.71118.84083a.55.55,0,0,0,.3975.19452l.023.00053a.54993.54993,0,0,0,.38914-.16115L10.503,13.20433a2.45446,2.45446,0,1,1-2.17963-1.32759Zm0,7.81363a2.44208,2.44208,0,0,1,1.463.48667L7.98662,21.97661l-.32444-.38389a.55063.55063,0,0,0-.84083.71118l.71118.84083a.55067.55067,0,0,0,.3975.19452l.023.00053a.5501.5501,0,0,0,.38914-.16133L10.503,21.018a2.45446,2.45446,0,1,1-2.17963-1.32759Zm0,12.72434a2.45541,2.45541,0,1,1,1.463-4.42414L7.98662,29.79015l-.32444-.38389a.55057.55057,0,0,0-.84083.711l.71118.84083a.55086.55086,0,0,0,.3975.1947l.023.00036a.54993.54993,0,0,0,.38914-.16115l2.16086-2.1605a2.453,2.453,0,0,1-2.17963,3.58322Zm18.10018-.98988H14.0004a.48955.48955,0,1,1,0-.97885H26.42353a.48955.48955,0,1,1,0,.97885Zm0-2.40263H14.0004a.48955.48955,0,1,1,0-.97885H26.42353a.48955.48955,0,1,1,0,.97885Zm0-5.42817H14.0004a.48955.48955,0,1,1,0-.97885H26.42353a.48955.48955,0,1,1,0,.97885Zm.50055-2.89206a.49124.49124,0,0,1-.50055.48943H14.0004a.48955.48955,0,1,1,0-.97885H26.42353A.49118.49118,0,0,1,26.92407,20.702Z" fill="#fff"/>
        <path d="M33.08247,0A9.75767,9.75767,0,1,0,42.839,9.75878,9.758,9.758,0,0,0,33.08247,0Zm.55439,11.07222a.11686.11686,0,0,1-.00392.0259.54919.54919,0,0,1-.31733.47465.56242.56242,0,0,1-.23279.0501.54387.54387,0,0,1-.33868-.11817l-.01806-.01388L29.849,9.044l-.00409-.002-.2303-.19622a.54714.54714,0,0,1-.062-.7748.46875.46875,0,0,1,.7045-.064l2.134,1.87414V4.14062a.62765.62765,0,0,1,1.24581,0v6.9316Z" fill="#fff"/>
      </g>
    </g>
  </g>
</svg>
