<svg xmlns="http://www.w3.org/2000/svg" viewBox="0 0 39.78526 39.78526">
  <title>Asset 4</title>
  <g id="eb1ebc10-8e4b-4507-848c-aa00a4299484" data-name="Layer 2">
    <g id="7cc0a8fe-af2b-41ae-a5d4-99e4769fbc50" data-name="Newsworthy_bar">
      <g>
        <path d="M4.97316,29.83894A4.97316,4.97316,0,1,0,9.94631,34.8121,4.97316,4.97316,0,0,0,4.97316,29.83894Z" fill="#fff"/>
        <path d="M4.97316,14.91947a2.48658,2.48658,0,0,0,0,4.97316A14.93576,14.93576,0,0,1,19.89263,34.8121a2.48658,2.48658,0,0,0,4.97316,0A19.91385,19.91385,0,0,0,4.97316,14.91947Z" fill="#fff"/>
        <path d="M4.97316,0a2.48658,2.48658,0,0,0,0,4.97316A29.8716,29.8716,0,0,1,34.8121,34.8121a2.48658,2.48658,0,0,0,4.97316,0A34.85275,34.85275,0,0,0,4.97316,0Z" fill="#fff"/>
      </g>
    </g>
  </g>
</svg>
