<svg xmlns="http://www.w3.org/2000/svg" viewBox="0 0 43.66132 46.77998">
  <title>icon-thoughtsAsset 1</title>
  <g id="cef17687-3518-41f6-8beb-dbede5b1847a" data-name="Layer 2">
    <g id="b11c9ada-307d-4def-b419-47ae84a8929e" data-name="Thoughts_bar">
      <g>
        <path d="M21.83066,9.356A13.036,13.036,0,0,0,9.356,21.83066a13.09839,13.09839,0,0,0,3.57087,8.8882,7.11056,7.11056,0,0,1,2.66646,5.1458A1.55933,1.55933,0,0,0,17.15266,37.424h9.356A1.55933,1.55933,0,0,0,28.068,35.86465,6.95462,6.95462,0,0,1,30.70326,30.75a12.27194,12.27194,0,0,0,3.60206-8.91938,12.73974,12.73974,0,0,0-3.80477-9.09091A11.96008,11.96008,0,0,0,21.83066,9.356Zm6.7675,19.1486a10.71262,10.71262,0,0,0-3.5085,5.80072h-6.518a10.91534,10.91534,0,0,0-3.43053-5.78512,9.99532,9.99532,0,0,1-2.66646-6.68954,9.8082,9.8082,0,0,1,9.356-9.356,8.779,8.779,0,0,1,6.44,2.49493,9.60548,9.60548,0,0,1,2.916,6.86106,9.24684,9.24684,0,0,1-2.63527,6.67395Z" fill="#fff"/>
        <path d="M26.50866,38.98332h-9.356a1.55933,1.55933,0,1,0,0,3.11867h9.356a1.55933,1.55933,0,0,0,0-3.11867Z" fill="#fff"/>
        <path d="M24.94932,43.66132H18.712a1.55933,1.55933,0,0,0,0,3.11867h6.23733a1.55933,1.55933,0,0,0,0-3.11867Z" fill="#fff"/>
        <path d="M21.83066,6.23733A1.55933,1.55933,0,0,0,23.39,4.678V1.55933a1.55933,1.55933,0,1,0-3.11867,0V4.678A1.55933,1.55933,0,0,0,21.83066,6.23733Z" fill="#fff"/>
        <path d="M4.678,20.27133H1.55933a1.55933,1.55933,0,1,0,0,3.11867H4.678a1.55933,1.55933,0,1,0,0-3.11867Z" fill="#fff"/>
        <path d="M42.102,20.27133H38.98332a1.55933,1.55933,0,1,0,0,3.11867H42.102a1.55933,1.55933,0,1,0,0-3.11867Z" fill="#fff"/>
        <path d="M37.26805,6.39326a1.55933,1.55933,0,0,0-2.19866,0L32.85514,8.59192a1.55933,1.55933,0,0,0-.009,2.20521l.009.009a1.58138,1.58138,0,0,0,2.21425,0l2.19866-2.21425A1.55933,1.55933,0,0,0,37.26805,6.39326Z" fill="#fff"/>
        <path d="M10.80618,10.80618a1.55933,1.55933,0,0,0,.009-2.20521l-.009-.009L8.59192,6.39326A1.55933,1.55933,0,0,0,6.39326,8.59192l2.19866,2.21425a1.58138,1.58138,0,0,0,2.21425,0Z" fill="#fff"/>
      </g>
    </g>
  </g>
</svg>
